<?xml version="1.0" encoding="UTF-8"?>
<svg version="1.1" xmlns="http://www.w3.org/2000/svg" width="731" height="467">
<path d="M0 0 C241.23 0 482.46 0 731 0 C731 154.11 731 308.22 731 467 C489.77 467 248.54 467 0 467 C0 312.89 0 158.78 0 0 Z " fill="#FEFEFE" transform="translate(0,0)"/>
<path d="M0 0 C1.98 0 3.96 0 6 0 C6 30.36 6 60.72 6 92 C-76.17 92 -158.34 92 -243 92 C-236.43694087 78.87388174 -231.12326971 70.29411267 -220.296875 61.10546875 C-217.93209679 59.05944709 -217.93209679 59.05944709 -216.09375 56.51953125 C-213.61282778 53.53409313 -210.96717281 51.66511156 -207.75 49.5 C-207.1729834 49.11054199 -206.5959668 48.72108398 -206.00146484 48.31982422 C-204.3404813 47.20397445 -202.67045557 46.10161938 -201 45 C-200.21367188 44.47664063 -199.42734375 43.95328125 -198.6171875 43.4140625 C-194.56018373 40.78894241 -190.48234038 38.84096123 -186 37 C-184.78886166 36.35944239 -183.58068367 35.7132665 -182.375 35.0625 C-177.80471166 32.73289777 -173.00286147 31.37870704 -168.09375 29.9375 C-165.6600843 29.20002554 -163.3508561 28.39378045 -161 27.4375 C-141.58106165 20.00556063 -119.00835701 18.42617307 -98.5 16.375 C-96.52205815 16.17001507 -94.54419321 15.96428655 -92.56640625 15.7578125 C-84.69755192 14.94296836 -76.82719793 14.1556171 -68.94702148 13.45776367 C-67.96362793 13.37060089 -66.98023438 13.28343811 -65.96704102 13.19363403 C-64.11568013 13.03133558 -62.26405102 12.87205374 -60.41210938 12.71652222 C-52.82811797 12.05663084 -45.40028644 10.86154623 -37.93652344 9.38232422 C-36.06711855 9.01325109 -34.19374774 8.66444358 -32.3203125 8.31640625 C-24.86166711 6.89685761 -17.49423368 5.19819429 -10.125 3.375 C-9.23772217 3.15666504 -8.35044434 2.93833008 -7.4362793 2.71337891 C-6.61426025 2.50632324 -5.79224121 2.29926758 -4.9453125 2.0859375 C-4.20812988 1.9007959 -3.47094727 1.7156543 -2.71142578 1.52490234 C-0.98562498 1.14185334 -0.98562498 1.14185334 0 0 Z " fill="#FEFEFE" transform="translate(725,375)"/>
<path d="M0 0 C1.12148437 0.49306641 1.12148437 0.49306641 2.265625 0.99609375 C11.92561219 5.7439446 18.17064957 14.07327185 22 24 C22.96141337 27.75438007 23.16346519 31.31789544 23.1875 35.1875 C23.20167969 36.23292969 23.21585937 37.27835938 23.23046875 38.35546875 C23 41 23 41 21 43 C17.5 43.3125 17.5 43.3125 14 43 C11.85128625 39.77692937 11.63458801 38.20581323 11.1875 34.4375 C9.88215716 26.13351132 7.00772377 18.44232341 0.140625 13.1875 C-7.34711548 9.03371696 -15.7242665 8.15131957 -24 10 C-32.80298432 12.73196065 -38.58832873 18.45388812 -42.91473389 26.39526367 C-44.7852666 30.88471049 -44.69443698 35.22249499 -44.62890625 40.02734375 C-44.63131821 41.05630264 -44.63373016 42.08526154 -44.63621521 43.145401 C-44.63524094 45.30945714 -44.62194855 47.47353951 -44.59692383 49.63745117 C-44.56262841 52.92519023 -44.57628642 56.21023407 -44.59570312 59.49804688 C-44.5888029 61.61199046 -44.57912892 63.72592719 -44.56640625 65.83984375 C-44.57136612 66.80993881 -44.57632599 67.78003387 -44.58143616 68.77952576 C-44.43139708 77.60196679 -42.04691845 85.85104522 -35.8828125 92.40234375 C-24.38152382 102.16173601 -10.41289189 102.91811141 4 102 C15.40770749 100.27944589 24.93788087 95.04840854 32.34375 86.24609375 C35.09665401 82.51279233 36.86578527 79.53685894 38 75 C32.72 75 27.44 75 22 75 C22.03480469 76.20398438 22.06960937 77.40796875 22.10546875 78.6484375 C22.1336028 80.22394442 22.16090337 81.79946638 22.1875 83.375 C22.21263672 84.1690625 22.23777344 84.963125 22.26367188 85.78125 C22.29004405 87.85586148 22.15486462 89.93100865 22 92 C18.76746204 94.15502531 17.74849077 94.46856135 14 94 C12.36865234 92.8203125 12.36865234 92.8203125 11 91 C10.61181641 88.50390625 10.61181641 88.50390625 10.6015625 85.5625 C10.59769531 84.50289063 10.59382813 83.44328125 10.58984375 82.3515625 C10.60144531 81.24554688 10.61304688 80.13953125 10.625 79 C10.61339844 77.89398438 10.60179687 76.78796875 10.58984375 75.6484375 C10.59371094 74.58882813 10.59757812 73.52921875 10.6015625 72.4375 C10.60494629 71.46683594 10.60833008 70.49617188 10.61181641 69.49609375 C11 67 11 67 12.03466797 65.18286133 C15.13241259 63.31844236 18.33455906 63.59308527 21.84375 63.63671875 C22.60925171 63.63622025 23.37475342 63.63572174 24.16345215 63.63520813 C25.78070677 63.63754693 27.39796514 63.64726413 29.01513672 63.66381836 C31.49089092 63.68741319 33.96556817 63.68437795 36.44140625 63.67773438 C38.01302725 63.68331126 39.58464372 63.69042121 41.15625 63.69921875 C41.89693726 63.69830734 42.63762451 63.69739594 43.40075684 63.69645691 C47.13735806 63.74801521 48.81171136 63.87447424 52 66 C53.07889986 76.06973202 47.78099574 86.26019137 41.6875 94 C37.56704357 98.6606171 33.14329142 102.51367211 28 106 C26.948125 106.721875 25.89625 107.44375 24.8125 108.1875 C9.91583499 115.93779193 -9.90362725 116.89823137 -25.875 111.9375 C-36.94606398 108.08633034 -46.46492085 101.12614372 -51.7265625 90.51953125 C-54.50858221 84.30360743 -57.09939744 78.44866554 -57.16113281 71.57373047 C-57.17074036 70.70537567 -57.1803479 69.83702087 -57.19024658 68.94235229 C-57.19449646 68.01004791 -57.19874634 67.07774353 -57.203125 66.1171875 C-57.20882507 65.147742 -57.21452515 64.17829651 -57.22039795 63.17947388 C-57.22983903 61.12682177 -57.23637839 59.07415457 -57.24023438 57.02148438 C-57.24989983 53.90727626 -57.28091532 50.79373969 -57.3125 47.6796875 C-57.31903469 45.67969139 -57.32428333 43.67969059 -57.328125 41.6796875 C-57.3404718 40.7595285 -57.3528186 39.83936951 -57.36553955 38.8913269 C-57.32429556 26.69763706 -53.23085405 17.60077489 -44.89453125 8.76953125 C-32.70902356 -2.72582379 -15.73767697 -7.30677859 0 0 Z " fill="#2A2A2A" transform="translate(182,151)"/>
<path d="M0 0 C4.03227001 0.38111303 7.2804741 1.69653533 10.91015625 3.37890625 C11.60979492 3.69617676 12.30943359 4.01344727 13.03027344 4.34033203 C28.67248835 11.5289283 41.84328052 20.46702163 54.34765625 32.31640625 C55.26289062 33.17878906 56.178125 34.04117188 57.12109375 34.9296875 C64.69660531 42.25557618 64.69660531 42.25557618 66.34765625 47.31640625 C67.00765625 47.31640625 67.66765625 47.31640625 68.34765625 47.31640625 C70.18652867 49.78043431 71.87789069 52.23293994 73.53515625 54.81640625 C74.02838379 55.58452637 74.52161133 56.35264648 75.02978516 57.14404297 C81.91393746 68.12853052 92.79662959 86.99060226 91.34765625 100.31640625 C89.59765625 102.19140625 89.59765625 102.19140625 87.34765625 103.31640625 C85.28515625 103.31640625 85.28515625 103.31640625 83.34765625 102.31640625 C80.74653815 98.57216519 79.46437445 94.84973078 78.16015625 90.50390625 C67.98955447 58.51591523 45.40871286 34.29934093 16.6640625 17.97265625 C13.01486465 16.15020644 9.16691166 14.74862703 5.34765625 13.31640625 C5.34765625 39.38640625 5.34765625 65.45640625 5.34765625 92.31640625 C9.63765625 92.31640625 13.92765625 92.31640625 18.34765625 92.31640625 C18.3319458 90.45395264 18.31623535 88.59149902 18.30004883 86.67260742 C18.25169109 80.52192059 18.21721007 74.37127873 18.19221973 68.22045422 C18.17655766 64.4908557 18.15530996 60.76146267 18.12133789 57.03198242 C18.08876306 53.43340851 18.07080731 49.83503236 18.06302452 46.2363224 C18.05747757 44.86276447 18.04664573 43.48921747 18.03046608 42.11574364 C18.00871949 40.19339918 18.00743108 38.2708561 18.00708008 36.34838867 C18.00041824 35.25362717 17.99375641 34.15886566 17.9868927 33.03092957 C18.34765625 30.31640625 18.34765625 30.31640625 19.70878601 28.4276886 C21.34765625 27.31640625 21.34765625 27.31640625 23.91015625 27.50390625 C26.34765625 28.31640625 26.34765625 28.31640625 28.34765625 30.31640625 C28.60835266 33.19419861 28.60835266 33.19419861 28.62231445 36.92163086 C28.62742538 37.59985397 28.63253632 38.27807709 28.63780212 38.97685242 C28.65172973 41.22424078 28.65073899 43.47132355 28.6484375 45.71875 C28.65232282 47.27812312 28.65665715 48.83749517 28.66142273 50.39686584 C28.66889183 53.66785103 28.6685888 56.9387283 28.66333008 60.2097168 C28.65753571 64.40432823 28.67446195 68.59849806 28.69767475 72.79303646 C28.71239743 76.01435434 28.71328579 79.23556553 28.71016502 82.45691109 C28.71067902 84.00349362 28.71593141 85.55008201 28.72597694 87.096632 C28.73829561 89.25864324 28.73157808 91.41979001 28.7199707 93.58178711 C28.72060013 94.81263535 28.72122955 96.04348358 28.72187805 97.31163025 C28.34765625 100.31640625 28.34765625 100.31640625 26.99760437 102.21305847 C24.45962074 103.91025038 22.27558162 103.70551759 19.25390625 103.71484375 C18.05894531 103.71871094 16.86398437 103.72257812 15.6328125 103.7265625 C13.75916016 103.70916016 13.75916016 103.70916016 11.84765625 103.69140625 C10.59855469 103.70300781 9.34945313 103.71460938 8.0625 103.7265625 C6.27005859 103.72076172 6.27005859 103.72076172 4.44140625 103.71484375 C3.34505859 103.71145996 2.24871094 103.70807617 1.11914062 103.70458984 C-2.05888576 103.25946458 -2.7226011 102.78898491 -4.65234375 100.31640625 C-5.02707386 98.42234707 -5.02707386 98.42234707 -5.02656555 96.24864197 C-5.03357986 95.4228212 -5.04059418 94.59700043 -5.04782104 93.74615479 C-5.04017731 92.84371033 -5.03253357 91.94126587 -5.0246582 91.01147461 C-5.02830887 90.0583992 -5.03195953 89.10532379 -5.03572083 88.12336731 C-5.04383862 84.96748129 -5.03020683 81.81210669 -5.015625 78.65625 C-5.01510658 76.46814474 -5.01562356 74.280039 -5.01713562 72.0919342 C-5.01704584 67.50449681 -5.00660454 62.91723497 -4.98852539 58.32983398 C-4.96582476 52.43917194 -4.96529599 46.54876623 -4.97204304 40.65807247 C-4.97537851 36.13975227 -4.96876112 31.6214909 -4.9589138 27.10318184 C-4.95505523 24.93058136 -4.95391629 22.75797435 -4.95549965 20.58537102 C-4.955869 17.55410073 -4.94328702 14.52316376 -4.92700195 11.49194336 C-4.92947937 10.58747467 -4.93195679 9.68300598 -4.93450928 8.75112915 C-4.86417032 0.58026185 -4.86417032 0.58026185 0 0 Z " fill="#2A2A2A" transform="translate(481.65234375,158.68359375)"/>
<path d="M0 0 C2.625 0.25 2.625 0.25 4.17578125 1.4140625 C6.04420241 3.78106504 6.61766547 5.97750263 7.4375 8.875 C10.82328469 19.40009847 16.35843953 26.17239475 25.625 32.25 C28.30538039 33.57642112 30.7320984 34.40208056 33.625 35.25 C34.20636719 35.42917969 34.78773438 35.60835937 35.38671875 35.79296875 C47.27682278 38.22079104 58.55465881 36.02438672 68.94921875 29.875 C71.36432362 28.2290056 73.29884369 26.90231263 74.625 24.25 C75.285 24.25 75.945 24.25 76.625 24.25 C78.36295017 20.82423283 80.00190422 17.35654046 81.625 13.875 C82.140625 12.77414063 82.65625 11.67328125 83.1875 10.5390625 C84.5241867 7.48066521 85.57901725 4.41596565 86.625 1.25 C86.955 0.92 87.285 0.59 87.625 0.25 C89.96444736 0.53730055 92.2989143 0.86936779 94.625 1.25 C96.84732736 8.60077512 93.93513005 14.61455581 90.625 21.25 C83.31915245 33.31926015 72.57001262 42.32062595 58.96484375 46.328125 C44.62711501 49.76494589 30.3476868 47.4687895 17.8125 39.9375 C6.52030101 32.27957195 -1.14017976 21.6601725 -4.375 8.25 C-4.44045725 5.59898156 -4.10526725 3.83402257 -3.375 1.25 C-2.375 0.25 -2.375 0.25 0 0 Z " fill="#2B2B2B" transform="translate(304.375,152.75)"/>
<path d="M0 0 C0.70382812 0.58394531 1.40765625 1.16789063 2.1328125 1.76953125 C2.1328125 2.42953125 2.1328125 3.08953125 2.1328125 3.76953125 C2.7928125 3.76953125 3.4528125 3.76953125 4.1328125 3.76953125 C10.07265807 10.98220087 17.10676557 20.30708596 17.140625 30.0078125 C16.8828125 31.95703125 16.8828125 31.95703125 16.1328125 34.76953125 C12.7578125 35.39453125 12.7578125 35.39453125 9.1328125 35.76953125 C6.85046456 33.48718331 6.64232683 32.34653802 5.8828125 29.26953125 C2.99674399 19.35402854 -2.38475583 11.70591422 -10.8671875 5.76953125 C-21.53625543 0.02794449 -32.06554116 -2.04321477 -44.015625 0.41796875 C-54.91654032 4.07243033 -63.46553648 10.5557495 -68.8671875 20.76953125 C-70.82380314 25.33701356 -72.38479143 30.02859637 -73.8671875 34.76953125 C-77.2421875 35.39453125 -77.2421875 35.39453125 -80.8671875 35.76953125 C-82.8671875 33.76953125 -82.8671875 33.76953125 -83.3046875 30.89453125 C-82.95930838 20.51157137 -75.89923932 10.14346345 -69.02734375 2.8046875 C-48.59510079 -16.29047617 -22.02969688 -15.0411638 0 0 Z " fill="#2B2B2B" transform="translate(382.8671875,219.23046875)"/>
<path d="M0 0 C0.33 0.66 0.66 1.32 1 2 C1.61520508 1.98428955 2.23041016 1.9685791 2.86425781 1.95239258 C5.65941121 1.88992074 8.45441755 1.85097132 11.25 1.8125 C12.70212891 1.77479492 12.70212891 1.77479492 14.18359375 1.73632812 C15.58544922 1.72182617 15.58544922 1.72182617 17.015625 1.70703125 C17.87446289 1.6913208 18.73330078 1.67561035 19.61816406 1.65942383 C22.54523631 2.07796276 23.89468137 2.94710464 26 5 C26.4375 8.0625 26.4375 8.0625 26 11 C22.95318939 13.03120707 22.39881676 13.24659875 18.98828125 13.1953125 C18.23095703 13.18886719 17.47363281 13.18242187 16.69335938 13.17578125 C15.90767578 13.15902344 15.12199219 13.14226562 14.3125 13.125 C13.51521484 13.11597656 12.71792969 13.10695313 11.89648438 13.09765625 C9.930861 13.07411585 7.96539225 13.03824547 6 13 C6 12.67 6 12.34 6 12 C12.93 11.01 12.93 11.01 20 10 C19.67 8.68 19.34 7.36 19 6 C13.31153591 5.94987118 7.62320558 5.91394252 1.93457031 5.89013672 C0.0068131 5.88019321 -1.9209295 5.86663365 -3.84863281 5.84912109 C-15.75056463 5.74384906 -27.22893895 6.13020574 -39 8 C-39 8.33 -39 8.66 -39 9 C-37.35 9.33 -35.7 9.66 -34 10 C-34.33 10.99 -34.66 11.98 -35 13 C-59.89461695 13.97348498 -84.75751419 14.12760772 -109.66870117 14.06866455 C-114.57795765 14.05820655 -119.48721983 14.05382019 -124.39648438 14.04882812 C-133.93100379 14.03828546 -143.46549906 14.02135164 -153 14 C-153.33 11.36 -153.66 8.72 -154 6 C-141.1214866 5.62394632 -128.24291441 5.24997261 -115.36427212 4.87835789 C-109.37831826 4.7055734 -103.39238355 4.53218173 -97.40649414 4.35717773 C-91.61335085 4.18786006 -85.82016272 4.0201644 -80.02693558 3.85374069 C-77.71462451 3.787182 -75.40232535 3.7202086 -73.0900383 3.65282059 C-60.43334113 3.28510941 -47.7780131 2.96159177 -35.11767578 2.74951172 C-34.0140183 2.73010875 -32.91036081 2.71070578 -31.77325916 2.69071484 C-26.53790624 2.5989081 -21.3027622 2.51634509 -16.06700134 2.45179749 C-14.22052341 2.42131653 -12.37405178 2.39045089 -10.52758789 2.35913086 C-9.26520514 2.34925424 -9.26520514 2.34925424 -7.97731972 2.33917809 C-3.51678145 2.43401309 -3.51678145 2.43401309 0 0 Z " fill="#4B4B4B" transform="translate(672,299)"/>
<path d="M0 0 C0.98178223 -0.00430527 0.98178223 -0.00430527 1.98339844 -0.00869751 C3.36524319 -0.01073618 4.74711693 -0.00521996 6.12890625 0.00732422 C8.2428445 0.02338314 10.35487113 0.00747149 12.46875 -0.01171875 C13.81250422 -0.00973628 15.15625724 -0.00589252 16.5 0 C17.72203125 0.00338379 18.9440625 0.00676758 20.203125 0.01025391 C23.25 0.3984375 23.25 0.3984375 24.91716003 1.58883667 C26.73494099 4.05684334 26.62431149 5.69004203 26.62231445 8.74023438 C26.63165764 10.37708191 26.63165764 10.37708191 26.64118958 12.04699707 C26.63197983 13.22515991 26.62277008 14.40332275 26.61328125 15.6171875 C26.61402901 17.43132141 26.61402901 17.43132141 26.61479187 19.28210449 C26.61244981 21.84091839 26.6027136 24.39973453 26.58618164 26.95849609 C26.56259462 30.8826958 26.56561936 34.80621621 26.57226562 38.73046875 C26.56668889 41.21354573 26.55957905 43.69661984 26.55078125 46.1796875 C26.55214836 47.94693176 26.55214836 47.94693176 26.55354309 49.74987793 C26.54401108 50.84110962 26.53447906 51.93234131 26.5246582 53.05664062 C26.52005081 54.01799927 26.51544342 54.97935791 26.51069641 55.96984863 C26.25 58.3984375 26.25 58.3984375 24.25 61.3984375 C22.93 61.3984375 21.61 61.3984375 20.25 61.3984375 C16.28166963 55.5945815 15.65006367 51.25672883 15.640625 44.30859375 C15.62408875 43.36406845 15.60755249 42.41954315 15.59051514 41.44639587 C15.54221289 38.45117576 15.52070362 35.45646271 15.5 32.4609375 C15.47182547 30.42119869 15.44189598 28.38148332 15.41015625 26.34179688 C15.33645859 21.36071885 15.2867754 16.3799194 15.25 11.3984375 C10.63 11.3984375 6.01 11.3984375 1.25 11.3984375 C0.92 17.9984375 0.59 24.5984375 0.25 31.3984375 C-4.58185952 30.19047262 -7.09456791 28.63515893 -9.75 24.3984375 C-10.53656847 20.80467092 -10.45597938 17.37343755 -10.3125 13.7109375 C-10.30959961 12.2868457 -10.30959961 12.2868457 -10.30664062 10.83398438 C-10.17757309 4.07944995 -10.17757309 4.07944995 -8.64038086 1.63110352 C-5.78673235 -0.22968317 -3.37915 0.00935682 0 0 Z " fill="#292929" transform="translate(543.75,156.6015625)"/>
<path d="M0 0 C1.21816406 0.03480469 1.21816406 0.03480469 2.4609375 0.0703125 C3.68683594 0.09738281 3.68683594 0.09738281 4.9375 0.125 C5.87722656 0.15980469 5.87722656 0.15980469 6.8359375 0.1953125 C7.75316521 2.71768869 8.17489831 4.44355784 7.046875 6.9453125 C6.33779688 8.1288098 5.60413153 9.29801175 4.84375 10.44921875 C2.68193743 14.19468471 2.6963074 17.96698898 2.64648438 22.21728516 C2.62976685 23.43179352 2.61304932 24.64630188 2.5958252 25.89761353 C2.58224976 27.20499481 2.56867432 28.5123761 2.5546875 29.859375 C2.53664044 31.21650927 2.51803702 32.57363625 2.49890137 33.93075562 C2.42921908 38.95837662 2.36961138 43.98610767 2.30987549 49.01385498 C2.25896393 53.26870828 2.20416196 57.52347599 2.14405823 61.77820969 C2.11746901 63.77572631 2.09672809 65.77331798 2.0760498 67.77090454 C2.05933228 68.97910858 2.04261475 70.18731262 2.02539062 71.43212891 C2.01286255 72.49928131 2.00033447 73.56643372 1.98742676 74.66592407 C1.8359375 77.1953125 1.8359375 77.1953125 0.8359375 79.1953125 C-3.13579288 78.62792245 -5.97329407 77.66443646 -9.1640625 75.1953125 C-9.79898071 72.51011658 -9.79898071 72.51011658 -9.81103516 69.23022461 C-9.82679596 68.00142075 -9.84255676 66.77261688 -9.85879517 65.50657654 C-9.84983865 64.16192741 -9.83958199 62.8172864 -9.828125 61.47265625 C-9.83149567 60.08842035 -9.83635039 58.70418735 -9.84262085 57.31996155 C-9.84999781 54.41362428 -9.83927357 51.50805464 -9.81591797 48.60180664 C-9.78761357 44.90181529 -9.80370812 41.20365208 -9.83378029 37.50372982 C-9.85199225 34.64059609 -9.84602948 31.77788338 -9.83314133 28.91473579 C-9.82824079 26.89536977 -9.84327702 24.87598654 -9.85879517 22.85667419 C-9.7768326 16.35164869 -8.93435402 0.80634964 0 0 Z " fill="#2A2A2A" transform="translate(163.1640625,165.8046875)"/>
<path d="M0 0 C9.99068144 -0.84666792 18.87877033 2.38736318 26.9375 8.3125 C34.01514886 14.30127981 40.22638312 22.72651744 42 32 C42.1408287 34.01764196 42.21992822 36.04017275 42.25 38.0625 C42.27578125 39.10535156 42.3015625 40.14820313 42.328125 41.22265625 C42 44 42 44 40.77124023 45.65527344 C38.48088302 47.3941139 37.18523278 47.34748852 34.33203125 47.29296875 C33.43935547 47.28330078 32.54667969 47.27363281 31.62695312 47.26367188 C30.23379883 47.2259668 30.23379883 47.2259668 28.8125 47.1875 C27.87212891 47.17396484 26.93175781 47.16042969 25.96289062 47.14648438 C23.64134962 47.11113096 21.32096347 47.06178674 19 47 C18.97311849 45.35425434 18.95365877 43.70838587 18.9375 42.0625 C18.92589844 41.14597656 18.91429687 40.22945312 18.90234375 39.28515625 C19 37 19 37 20 36 C21.68608966 35.92794489 23.37500659 35.91613932 25.0625 35.9375 C25.98160156 35.94652344 26.90070313 35.95554688 27.84765625 35.96484375 C28.55792969 35.97644531 29.26820313 35.98804688 30 36 C27.94621531 28.21723698 25.20843844 21.65365424 18.1875 17.2265625 C16.10356042 16.07518588 14.01365766 14.93453717 11.91796875 13.8046875 C8.28548963 11.55809399 5.90384732 8.95072864 3.3046875 5.6015625 C2.07256058 3.86503133 2.07256058 3.86503133 0 3 C0 2.01 0 1.02 0 0 Z " fill="#2A2A2A" transform="translate(193,147)"/>
<path d="M0 0 C5.15682238 2.42473023 7.60300338 5.85010039 10 11 C10.80052352 15.03739331 10.88536574 18.95507578 10.875 23.0625 C10.895625 24.11888672 10.91625 25.17527344 10.9375 26.26367188 C10.98418916 28.84324784 11.00447956 31.42009199 11 34 C12.05344604 34.17631958 12.05344604 34.17631958 13.12817383 34.35620117 C14.49752075 34.60333862 14.49752075 34.60333862 15.89453125 34.85546875 C16.80307861 35.01426514 17.71162598 35.17306152 18.64770508 35.33666992 C21 36 21 36 22.6875 38.3125 C23.01793676 41.15425616 22.6174468 43.22845309 22 46 C18.89614789 46.11613204 15.79285338 46.18722029 12.6875 46.25 C11.80642578 46.28351563 10.92535156 46.31703125 10.01757812 46.3515625 C9.17001953 46.36445313 8.32246094 46.37734375 7.44921875 46.390625 C6.66893311 46.41157227 5.88864746 46.43251953 5.0847168 46.45410156 C3 46 3 46 1.24023438 44.57421875 C-0.67786881 40.5930219 -0.36814499 36.78204826 -0.29296875 32.421875 C-0.28872391 31.4953009 -0.28447906 30.56872681 -0.28010559 29.61407471 C-0.26333322 26.65908566 -0.22568355 23.70478239 -0.1875 20.75 C-0.1724513 18.74480153 -0.15876322 16.73959235 -0.14648438 14.734375 C-0.11343438 9.82265304 -0.06166182 4.91144274 0 0 Z " fill="#2D2D2D" transform="translate(534,216)"/>
<path d="M0 0 C2.87829766 0.01091204 5.75599622 -0.00006062 8.63427734 -0.01269531 C10.46891413 -0.01137677 12.30355056 -0.00882073 14.13818359 -0.00488281 C14.99636688 -0.00893127 15.85455017 -0.01297974 16.73873901 -0.01715088 C22.72845779 0.03070388 22.72845779 0.03070388 24.95849609 2.26074219 C24.58349609 4.38574219 24.58349609 4.38574219 23.95849609 6.26074219 C22.30849609 6.59074219 20.65849609 6.92074219 18.95849609 7.26074219 C20.60849609 7.59074219 22.25849609 7.92074219 23.95849609 8.26074219 C23.95849609 8.59074219 23.95849609 8.92074219 23.95849609 9.26074219 C12.73849609 9.26074219 1.51849609 9.26074219 -10.04150391 9.26074219 C-10.70150391 10.58074219 -11.36150391 11.90074219 -12.04150391 13.26074219 C-13.76806641 15.18261719 -13.76806641 15.18261719 -15.66650391 17.01074219 C-16.29814453 17.62433594 -16.92978516 18.23792969 -17.58056641 18.87011719 C-18.06267578 19.32902344 -18.54478516 19.78792969 -19.04150391 20.26074219 C-19.04150391 17.26074219 -19.04150391 17.26074219 -12.04150391 9.26074219 C-29.20150391 9.26074219 -46.36150391 9.26074219 -64.04150391 9.26074219 C-64.04150391 8.93074219 -64.04150391 8.60074219 -64.04150391 8.26074219 C-53.15150391 7.93074219 -42.26150391 7.60074219 -31.04150391 7.26074219 C-30.71150391 6.60074219 -30.38150391 5.94074219 -30.04150391 5.26074219 C-31.69150391 5.26074219 -33.34150391 5.26074219 -35.04150391 5.26074219 C-35.04150391 4.27074219 -35.04150391 3.28074219 -35.04150391 2.26074219 C-23.32008784 0.42069153 -11.85183045 -0.0536749 0 0 Z " fill="#7B7B7B" transform="translate(668.04150390625,303.7392578125)"/>
<path d="M0 0 C0.08690253 4.43737712 0.14035926 8.87453634 0.1875 13.3125 C0.21263672 14.57513672 0.23777344 15.83777344 0.26367188 17.13867188 C0.27333984 18.34716797 0.28300781 19.55566406 0.29296875 20.80078125 C0.3086792 21.91622314 0.32438965 23.03166504 0.34057617 24.1809082 C0 27 0 27 -1.21508789 28.86694336 C-3.55614487 30.35303903 -5.08769643 30.35824039 -7.8515625 30.328125 C-9.25148438 30.32039063 -9.25148438 30.32039063 -10.6796875 30.3125 C-11.65164063 30.291875 -12.62359375 30.27125 -13.625 30.25 C-14.6046875 30.24484375 -15.584375 30.2396875 -16.59375 30.234375 C-23.84598214 30.15401786 -23.84598214 30.15401786 -25 29 C-25.28249552 25.82192543 -25.35169007 23.68025864 -23.87109375 20.81640625 C-22 19 -22 19 -19.08203125 18.609375 C-18.00308594 18.65578125 -16.92414063 18.7021875 -15.8125 18.75 C-14.72582031 18.78609375 -13.63914062 18.8221875 -12.51953125 18.859375 C-11.68808594 18.90578125 -10.85664063 18.9521875 -10 19 C-10.06960938 17.96359375 -10.13921875 16.9271875 -10.2109375 15.859375 C-10.26722764 14.48964826 -10.32182648 13.11985127 -10.375 11.75 C-10.42527344 11.06808594 -10.47554688 10.38617188 -10.52734375 9.68359375 C-10.5859375 7.671875 -10.5859375 7.671875 -10 4 C-6.42703645 0.79942983 -4.83305127 0 0 0 Z " fill="#2E2E2E" transform="translate(341,226)"/>
<path d="M0 0 C7.55840949 1.14566443 7.55840949 1.14566443 10 4 C10.29642569 6.71229503 10.38061189 8.99739732 10.25 11.6875 C10.23195313 12.38939453 10.21390625 13.09128906 10.1953125 13.81445312 C10.14826213 15.54355436 10.07651873 17.27195205 10 19 C10.83144531 18.94199219 11.66289062 18.88398438 12.51953125 18.82421875 C14.14955078 18.75654297 14.14955078 18.75654297 15.8125 18.6875 C16.89144531 18.62949219 17.97039062 18.57148438 19.08203125 18.51171875 C22 19 22 19 23.87109375 21.34765625 C25.06993764 24.16431715 25.33620521 25.97415312 25 29 C22.64758071 31.35241929 16.78456887 30.18542134 13.625 30.1875 C12.65304687 30.19974609 11.68109375 30.21199219 10.6796875 30.22460938 C9.27976562 30.22750977 9.27976562 30.22750977 7.8515625 30.23046875 C6.56499756 30.23663208 6.56499756 30.23663208 5.25244141 30.24291992 C3 30 3 30 0 28 C-0.34057617 25.20263672 -0.34057617 25.20263672 -0.29296875 21.6796875 C-0.28330078 20.42285156 -0.27363281 19.16601562 -0.26367188 17.87109375 C-0.23853516 16.55238281 -0.21339844 15.23367187 -0.1875 13.875 C-0.17245483 12.53517097 -0.15876613 11.19532596 -0.14648438 9.85546875 C-0.11102872 6.56991158 -0.06160849 3.28515418 0 0 Z " fill="#313131" transform="translate(359,226)"/>
<path d="M0 0 C3.79160297 -0.05786668 7.58309311 -0.09355054 11.375 -0.125 C12.45523437 -0.14175781 13.53546875 -0.15851563 14.6484375 -0.17578125 C15.6796875 -0.18222656 16.7109375 -0.18867188 17.7734375 -0.1953125 C19.20308838 -0.21102295 19.20308838 -0.21102295 20.66162109 -0.22705078 C23 0 23 0 25 2 C25.22705078 4.70556641 25.22705078 4.70556641 25.1953125 8.1015625 C25.18886719 9.31328125 25.18242187 10.525 25.17578125 11.7734375 C25.15902344 13.04445312 25.14226562 14.31546875 25.125 15.625 C25.11597656 16.90375 25.10695313 18.1825 25.09765625 19.5 C25.07402303 22.66685167 25.04107629 25.83333424 25 29 C18.375 28.25 18.375 28.25 15 26 C14.77892213 23.2114711 14.71892465 20.65346819 14.8125 17.875 C14.82603516 17.12089844 14.83957031 16.36679688 14.85351562 15.58984375 C14.88890015 13.72625873 14.94270833 11.86304022 15 10 C10.71 10 6.42 10 2 10 C0.0044484 6.00889681 -0.19546065 4.30013434 0 0 Z " fill="#2A2A2A" transform="translate(316,153)"/>
<path d="M0 0 C0.95310059 0.01047363 1.90620117 0.02094727 2.88818359 0.03173828 C4.43505859 0.04140625 4.43505859 0.04140625 6.01318359 0.05126953 C7.63353516 0.07640625 7.63353516 0.07640625 9.28662109 0.10205078 C10.37458984 0.11107422 11.46255859 0.12009766 12.58349609 0.12939453 C15.27642261 0.15301669 17.96891365 0.18595522 20.66162109 0.22705078 C19.91162109 7.97705078 19.91162109 7.97705078 17.66162109 10.22705078 C14.84130859 10.42236328 14.84130859 10.42236328 11.53662109 10.35205078 C10.44091797 10.33400391 9.34521484 10.31595703 8.21630859 10.29736328 C7.37326172 10.27416016 6.53021484 10.25095703 5.66162109 10.22705078 C5.73123047 11.26345703 5.80083984 12.29986328 5.87255859 13.36767578 C5.92884873 14.73740253 5.98344757 16.10719951 6.03662109 17.47705078 C6.11203125 18.49992187 6.11203125 18.49992187 6.18896484 19.54345703 C6.24755859 21.55517578 6.24755859 21.55517578 5.66162109 25.22705078 C2.08865754 28.42762095 0.49467236 29.22705078 -4.33837891 29.22705078 C-4.39620931 24.76877152 -4.43191745 20.31058798 -4.46337891 15.85205078 C-4.48013672 14.58103516 -4.49689453 13.31001953 -4.51416016 12.00048828 C-4.52060547 10.78876953 -4.52705078 9.57705078 -4.53369141 8.32861328 C-4.54940186 6.64759521 -4.54940186 6.64759521 -4.56542969 4.93261719 C-4.27240951 1.44095095 -3.55544 0.34522439 0 0 Z " fill="#2B2B2B" transform="translate(363.33837890625,152.77294921875)"/>
<path d="M0 0 C14.19 0 28.38 0 43 0 C42.34 1.98 41.68 3.96 41 6 C42.98 6 44.96 6 47 6 C47 6.33 47 6.66 47 7 C31.82 7.33 16.64 7.66 1 8 C0.67 5.36 0.34 2.72 0 0 Z " fill="#4B4B4B" transform="translate(518,305)"/>
<path d="M0 0 C3.86345353 0.05539001 6.19882712 0.7372694 9.25 3.25 C11.81632517 6.67176689 11.61435051 10.09640421 11.25 14.25 C9.91387402 17.41450889 8.96860768 18.83081219 6 20.5625 C2.65585404 21.39853649 -0.31635848 21.4480947 -3.75 21.25 C-5.30606751 19.69393249 -4.87970769 18.19042629 -4.8828125 16.03125 C-4.88410156 15.18175781 -4.88539063 14.33226562 -4.88671875 13.45703125 C-4.88285156 12.56371094 -4.87898438 11.67039062 -4.875 10.75 C-4.87886719 9.85667969 -4.88273437 8.96335937 -4.88671875 8.04296875 C-4.88542969 7.19347656 -4.88414062 6.34398437 -4.8828125 5.46875 C-4.88168457 4.68435547 -4.88055664 3.89996094 -4.87939453 3.09179688 C-4.63580289 -0.37547741 -3.62075087 0.24138339 0 0 Z " fill="#282828" transform="translate(440.75,295.75)"/>
<path d="M0 0 C0 1.32 0 2.64 0 4 C-30.36 4 -60.72 4 -92 4 C-92.33 3.34 -92.66 2.68 -93 2 C-85.30413992 1.73316471 -77.6081032 1.47215665 -69.91182518 1.21769714 C-66.33435048 1.09925195 -62.75695229 0.97912826 -59.1796875 0.85449219 C-39.44382345 0.16847507 -19.74870143 -0.14089764 0 0 Z " fill="#737373" transform="translate(186,305)"/>
<path d="M0 0 C2.15478516 -0.34057617 2.15478516 -0.34057617 4.7890625 -0.29296875 C5.73007812 -0.28330078 6.67109375 -0.27363281 7.640625 -0.26367188 C9.11789062 -0.2259668 9.11789062 -0.2259668 10.625 -0.1875 C11.61757813 -0.17396484 12.61015625 -0.16042969 13.6328125 -0.14648438 C16.08908072 -0.11105743 18.54427285 -0.06166196 21 0 C21.41378906 1.21236328 21.41378906 1.21236328 21.8359375 2.44921875 C22.22007812 3.29097656 22.60421875 4.13273437 23 5 C25.54775306 5.89386164 25.54775306 5.89386164 28 6 C27.67 6.99 27.34 7.98 27 9 C15.78 9.33 4.56 9.66 -7 10 C-7 8.68 -7 7.36 -7 6 C-4.625 4.4375 -4.625 4.4375 -2 3 C-1.34 2.01 -0.68 1.02 0 0 Z " fill="#4B4B4B" transform="translate(610,303)"/>
<path d="M0 0 C1.32 0 2.64 0 4 0 C5.8515625 2.37109375 5.8515625 2.37109375 7.625 5.4375 C9.66815898 9.38753155 9.66815898 9.38753155 13 12 C12.67 11.01 12.34 10.02 12 9 C11.87218214 6.32605036 11.95608129 3.67904143 12 1 C13.9375 0.4375 13.9375 0.4375 16 0 C17 1 17 1 17.11352539 2.85766602 C17.10828857 3.64842529 17.10305176 4.43918457 17.09765625 5.25390625 C17.09443359 6.10791016 17.09121094 6.96191406 17.08789062 7.84179688 C17.07951172 8.73962891 17.07113281 9.63746094 17.0625 10.5625 C17.05798828 11.46419922 17.05347656 12.36589844 17.04882812 13.29492188 C17.03700225 15.53001314 17.0205222 17.76497437 17 20 C15.68 20.33 14.36 20.66 13 21 C10.0843836 17.45960866 7.49872182 13.8373228 5 10 C4.67 13.3 4.34 16.6 4 20 C2.68 20.33 1.36 20.66 0 21 C0 14.07 0 7.14 0 0 Z " fill="#353535" transform="translate(361,296)"/>
<path d="M0 0 C1.79244141 0.01740234 1.79244141 0.01740234 3.62109375 0.03515625 C5.41740234 0.04869141 5.41740234 0.04869141 7.25 0.0625 C8.17683594 0.07410156 9.10367187 0.08570313 10.05859375 0.09765625 C10.05859375 1.41765625 10.05859375 2.73765625 10.05859375 4.09765625 C5.60359375 4.59265625 5.60359375 4.59265625 1.05859375 5.09765625 C1.05859375 5.75765625 1.05859375 6.41765625 1.05859375 7.09765625 C3.36859375 7.42765625 5.67859375 7.75765625 8.05859375 8.09765625 C8.38859375 9.41765625 8.71859375 10.73765625 9.05859375 12.09765625 C6.41859375 12.09765625 3.77859375 12.09765625 1.05859375 12.09765625 C1.05859375 13.74765625 1.05859375 15.39765625 1.05859375 17.09765625 C4.02859375 17.09765625 6.99859375 17.09765625 10.05859375 17.09765625 C10.05859375 18.41765625 10.05859375 19.73765625 10.05859375 21.09765625 C7.91282738 21.12451563 5.7669673 21.14398713 3.62109375 21.16015625 C2.42613281 21.17175781 1.23117187 21.18335938 0 21.1953125 C-2.94140625 21.09765625 -2.94140625 21.09765625 -3.94140625 20.09765625 C-4.04000756 18.6941689 -4.07219562 17.28585148 -4.07421875 15.87890625 C-4.07550781 15.02941406 -4.07679688 14.17992187 -4.078125 13.3046875 C-4.07425781 12.41136719 -4.07039063 11.51804687 -4.06640625 10.59765625 C-4.07027344 9.70433594 -4.07414062 8.81101562 -4.078125 7.890625 C-4.07683594 7.04113281 -4.07554687 6.19164062 -4.07421875 5.31640625 C-4.07309082 4.53201172 -4.07196289 3.74761719 -4.07080078 2.93945312 C-3.85098982 -0.18932783 -3.18049386 0.10559409 0 0 Z " fill="#363636" transform="translate(415.94140625,295.90234375)"/>
<path d="M0 0 C0.99 0 1.98 0 3 0 C4.17538461 2.74656201 5.34049752 5.49674122 6.5 8.25 C6.83386719 9.02730469 7.16773438 9.80460937 7.51171875 10.60546875 C7.82753906 11.35957031 8.14335937 12.11367188 8.46875 12.890625 C8.90864258 13.92751465 8.90864258 13.92751465 9.35742188 14.98535156 C10 17 10 17 10 21 C8.68 21 7.36 21 6 21 C5.34 19.68 4.68 18.36 4 17 C1.12586875 16.66602213 1.12586875 16.66602213 -2 17 C-3.91256712 18.88077873 -3.91256712 18.88077873 -5 21 C-5.99 20.67 -6.98 20.34 -8 20 C-7.42334176 15.24977778 -6.05052212 11.50049724 -4 7.1875 C-3.46375 6.04667969 -2.9275 4.90585937 -2.375 3.73046875 C-1 1 -1 1 0 0 Z " fill="#2F2F2F" transform="translate(266,296)"/>
<path d="M0 0 C4.29 0 8.58 0 13 0 C13 1.32 13 2.64 13 4 C10.03 4 7.06 4 4 4 C4 5.32 4 6.64 4 8 C6.31 8 8.62 8 11 8 C11.33 9.32 11.66 10.64 12 12 C9.69 12.33 7.38 12.66 5 13 C4.67 14.32 4.34 15.64 4 17 C7.3 17 10.6 17 14 17 C13.67 18.32 13.34 19.64 13 21 C11.02090602 21.02686553 9.04171029 21.04633375 7.0625 21.0625 C5.96035156 21.07410156 4.85820312 21.08570313 3.72265625 21.09765625 C1 21 1 21 0 20 C-0.08669432 18.5112814 -0.10703494 17.018555 -0.09765625 15.52734375 C-0.09443359 14.62822266 -0.09121094 13.72910156 -0.08789062 12.80273438 C-0.07951172 11.85720703 -0.07113281 10.91167969 -0.0625 9.9375 C-0.05798828 8.98810547 -0.05347656 8.03871094 -0.04882812 7.06054688 C-0.03700128 4.70700469 -0.01906521 2.35349468 0 0 Z " fill="#2D2D2D" transform="translate(389,296)"/>
<path d="M0 0 C4.29 0 8.58 0 13 0 C13 1.32 13 2.64 13 4 C10.03 4 7.06 4 4 4 C4 5.32 4 6.64 4 8 C6.31 8 8.62 8 11 8 C11.33 9.32 11.66 10.64 12 12 C9.36 12 6.72 12 4 12 C4 13.65 4 15.3 4 17 C7.3 17 10.6 17 14 17 C13.67 18.32 13.34 19.64 13 21 C8.71 21 4.42 21 0 21 C0 14.07 0 7.14 0 0 Z " fill="#2E2E2E" transform="translate(484,296)"/>
<path d="M0 0 C8.25 0 16.5 0 25 0 C21.625 5.625 21.625 5.625 18 7 C18 7.99 18 8.98 18 10 C-8.73 10 -35.46 10 -63 10 C-63 9.67 -63 9.34 -63 9 C-38.58 8.67 -14.16 8.34 11 8 C11 7.34 11 6.68 11 6 C11.66 6 12.32 6 13 6 C12.505 3.525 12.505 3.525 12 1 C8.04 1 4.08 1 0 1 C0 0.67 0 0.34 0 0 Z " fill="#7B7B7B" transform="translate(585,303)"/>
<path d="M0 0 C0.97179199 0.01869141 1.94358398 0.03738281 2.94482422 0.05664062 C4.00572266 0.06695312 5.06662109 0.07726562 6.15966797 0.08789062 C7.26181641 0.12914062 8.36396484 0.17039062 9.49951172 0.21289062 C10.60939453 0.22320312 11.71927734 0.23351562 12.86279297 0.24414062 C21.06562197 0.40400087 21.06562197 0.40400087 23.37451172 2.71289062 C23.04451172 4.03289062 22.71451172 5.35289062 22.37451172 6.71289062 C12.80451172 6.71289062 3.23451172 6.71289062 -6.62548828 6.71289062 C-2.62548828 0.71289062 -2.62548828 0.71289062 0 0 Z " fill="#FBFBFB" transform="translate(669.62548828125,303.287109375)"/>
<path d="M0 0 C0.99 0.66 1.98 1.32 3 2 C3 2.99 3 3.98 3 5 C2.01 5 1.02 5 0 5 C0.495 5.37125 0.99 5.7425 1.5 6.125 C3 8 3 8 3.375 11.0625 C3.25125 12.031875 3.1275 13.00125 3 14 C-0.46923881 16.31282587 -1.92205575 16.42478586 -6 16 C-7.875 14.6875 -7.875 14.6875 -9 13 C-9 12.01 -9 11.02 -9 10 C-8.01 9.67 -7.02 9.34 -6 9 C-6.99 8.34 -7.98 7.68 -9 7 C-9.375 4.5 -9.375 4.5 -9 2 C-5.53001271 -0.31332486 -4.07490752 -0.33957563 0 0 Z " fill="#2D2D2D" transform="translate(294,301)"/>
<path d="M0 0 C3.0625 0.25 3.0625 0.25 6.0625 2.25 C6.0625 3.24 6.0625 4.23 6.0625 5.25 C5.0725 5.25 4.0825 5.25 3.0625 5.25 C3.743125 5.9925 4.42375 6.735 5.125 7.5 C7.0625 10.25 7.0625 10.25 7 12.4375 C6.0625 14.25 6.0625 14.25 3.0625 16.25 C-2.16029793 16.79404145 -2.16029793 16.79404145 -4.8125 14.9375 C-5.9375 13.25 -5.9375 13.25 -5.9375 10.25 C-4.2875 9.92 -2.6375 9.59 -0.9375 9.25 C-3.4125 8.26 -3.4125 8.26 -5.9375 7.25 C-4.85804484 0.41345062 -4.85804484 0.41345062 0 0 Z " fill="#2F2F2F" transform="translate(312.9375,300.75)"/>
<path d="M0 0 C-1.15173355 2.46800047 -2.04783565 4.04783565 -4 6 C-6.87037591 6.1749506 -9.63202628 6.23361817 -12.5 6.1875 C-13.31065918 6.18105469 -14.12131836 6.17460937 -14.95654297 6.16796875 C-20.68810912 6.09461937 -26.31161645 5.73398497 -32 5 C-32 4.01 -32 3.02 -32 2 C-21.25704615 0.3999856 -10.85859801 -0.25991325 0 0 Z " fill="#F1F1F1" transform="translate(665,304)"/>
<path d="M0 0 C2.8992226 0.46761655 3.86675182 0.86675182 6 3 C6.66 2.01 7.32 1.02 8 0 C9.32 0.33 10.64 0.66 12 1 C11.649375 1.721875 11.29875 2.44375 10.9375 3.1875 C9.86646148 6.40061557 10.11537268 7.78317338 11 11 C11.33333333 12.66666667 11.66666667 14.33333333 12 16 C10.0625 15.6875 10.0625 15.6875 8 15 C7.67 14.01 7.34 13.02 7 12 C6.4225 12.66 5.845 13.32 5.25 14 C3 16 3 16 -1 16 C-0.855625 15.46375 -0.71125 14.9275 -0.5625 14.375 C1.06674774 7.55977732 1.06674774 7.55977732 -1 1 C-0.67 0.67 -0.34 0.34 0 0 Z " fill="#363636" transform="translate(330,301)"/>
<path d="M0 0 C1.98 0.495 1.98 0.495 4 1 C4 6.28 4 11.56 4 17 C6.97 17 9.94 17 13 17 C12.67 18.32 12.34 19.64 12 21 C10.02090602 21.02686553 8.04171029 21.04633375 6.0625 21.0625 C4.96035156 21.07410156 3.85820312 21.08570313 2.72265625 21.09765625 C0 21 0 21 -1 20 C-1.09860131 18.59651265 -1.13078937 17.18819523 -1.1328125 15.78125 C-1.13410156 14.93175781 -1.13539063 14.08226562 -1.13671875 13.20703125 C-1.13285156 12.31371094 -1.12898438 11.42039062 -1.125 10.5 C-1.12886719 9.60667969 -1.13273437 8.71335937 -1.13671875 7.79296875 C-1.13542969 6.94347656 -1.13414062 6.09398437 -1.1328125 5.21875 C-1.13168457 4.43435547 -1.13055664 3.64996094 -1.12939453 2.84179688 C-1 1 -1 1 0 0 Z " fill="#393939" transform="translate(462,296)"/>
<path d="M0 0 C3.125 0.1875 3.125 0.1875 6.125 2.1875 C6.125 3.5075 6.125 4.8275 6.125 6.1875 C3.815 5.8575 1.505 5.5275 -0.875 5.1875 C-1.88611093 8.23663228 -1.88611093 8.23663228 -0.875 11.1875 C2.59 10.6925 2.59 10.6925 6.125 10.1875 C5.55155063 13.05474686 5.2635485 14.0489515 3.125 16.1875 C0.08139252 16.51128803 -2.00421967 16.69795744 -4.6875 15.125 C-6.51585164 12.14189996 -6.75525472 9.66011317 -6.875 6.1875 C-4.04182927 0.26359756 -4.04182927 0.26359756 0 0 Z " fill="#313131" transform="translate(219.875,300.8125)"/>
<path d="M0 0 C1.32 0 2.64 0 4 0 C4 5.61 4 11.22 4 17 C6.97 17 9.94 17 13 17 C13 18.32 13 19.64 13 21 C11.02090602 21.02686553 9.04171029 21.04633375 7.0625 21.0625 C5.96035156 21.07410156 4.85820312 21.08570313 3.72265625 21.09765625 C1 21 1 21 0 20 C-0.08669432 18.5112814 -0.10703494 17.018555 -0.09765625 15.52734375 C-0.09443359 14.62822266 -0.09121094 13.72910156 -0.08789062 12.80273438 C-0.07951172 11.85720703 -0.07113281 10.91167969 -0.0625 9.9375 C-0.05798828 8.98810547 -0.05347656 8.03871094 -0.04882812 7.06054688 C-0.0370011 4.70696935 -0.02052025 2.35351523 0 0 Z " fill="#2C2C2C" transform="translate(237,296)"/>
<path d="M0 0 C5.61 0 11.22 0 17 0 C15 2 15 2 13 3 C13 4.32 13 5.64 13 7 C9.52176885 8.15941038 7.54104422 7.70820884 4 7 C4.33 5.35 4.66 3.7 5 2 C3.35 1.67 1.7 1.34 0 1 C0 0.67 0 0.34 0 0 Z " fill="#555555" transform="translate(555,304)"/>
<path d="M0 0 C9.9 0 19.8 0 30 0 C30 1.32 30 2.64 30 4 C25.05 4 20.1 4 15 4 C16.32 3.67 17.64 3.34 19 3 C19 2.34 19 1.68 19 1 C12.73 1 6.46 1 0 1 C0 0.67 0 0.34 0 0 Z " fill="#757575" transform="translate(156,305)"/>
<path d="M0 0 C3.875 0.875 3.875 0.875 5 2 C5.25 4.9375 5.25 4.9375 5 8 C1.95318939 10.03120707 1.39881676 10.24659875 -2.01171875 10.1953125 C-2.76904297 10.18886719 -3.52636719 10.18242187 -4.30664062 10.17578125 C-5.09232422 10.15902344 -5.87800781 10.14226562 -6.6875 10.125 C-7.48478516 10.11597656 -8.28207031 10.10695313 -9.10351562 10.09765625 C-11.069139 10.07411585 -13.03460775 10.03824547 -15 10 C-15 9.67 -15 9.34 -15 9 C-8.07 8.01 -8.07 8.01 -1 7 C-0.67 4.69 -0.34 2.38 0 0 Z " fill="#4C4C4C" transform="translate(693,302)"/>
<path d="M0 0 C0.33 0.66 0.66 1.32 1 2 C7.93 2 14.86 2 22 2 C21.67 3.65 21.34 5.3 21 7 C20.34 6.67 19.68 6.34 19 6 C17.26131256 5.84733388 15.51752499 5.75067404 13.7734375 5.68359375 C12.7421875 5.64169922 11.7109375 5.59980469 10.6484375 5.55664062 C9.56820312 5.51732422 8.48796875 5.47800781 7.375 5.4375 C6.28703125 5.39431641 5.1990625 5.35113281 4.078125 5.30664062 C1.3855483 5.2003547 -1.30712253 5.09831943 -4 5 C-2.68 4.34 -1.36 3.68 0 3 C0 2.01 0 1.02 0 0 Z " fill="#828282" transform="translate(672,299)"/>
<path d="M0 0 C1.2065625 0.2475 1.2065625 0.2475 2.4375 0.5 C4.7284443 1.03191839 4.7284443 1.03191839 6 1 C6.99 1.33 7.98 1.66 9 2 C8.67 2.66 8.34 3.32 8 4 C8.99 4.33 9.98 4.66 11 5 C7.99382731 8.00617269 5.17618402 7.59585316 1 8 C0.67 5.36 0.34 2.72 0 0 Z " fill="#454545" transform="translate(518,305)"/>
<path d="M0 0 C7.59 0 15.18 0 23 0 C23 0.33 23 0.66 23 1 C20.36 1 17.72 1 15 1 C15.33 2.65 15.66 4.3 16 6 C15.01 6 14.02 6 13 6 C12.67 4.35 12.34 2.7 12 1 C8.04 1 4.08 1 0 1 C0 0.67 0 0.34 0 0 Z M11 6 C11.66 6 12.32 6 13 6 C13.66 6.66 14.32 7.32 15 8 C15.99 8.66 16.98 9.32 18 10 C16.02 10 14.04 10 12 10 C11.67 8.68 11.34 7.36 11 6 Z " fill="#6C6C6C" transform="translate(585,303)"/>
<path d="M0 0 C0.66 0.33 1.32 0.66 2 1 C-3.36736949 5.02042506 -8.77000636 8.97280582 -14.4375 12.5625 C-15.21996094 13.05878906 -16.00242187 13.55507813 -16.80859375 14.06640625 C-19.36644203 15.15611345 -20.44458814 14.97210428 -23 14 C-19.39408732 11.4494764 -16.12917659 9.63917064 -12.01171875 7.9921875 C-7.69343602 5.86239369 -3.87085067 2.84277765 0 0 Z " fill="#AAAAAA" transform="translate(617,350)"/>
<path d="M0 0 C1.65 0 3.3 0 5 0 C4.01 0.66 3.02 1.32 2 2 C2.99 2.66 3.98 3.32 5 4 C-7.87 4 -20.74 4 -34 4 C-34 3.67 -34 3.34 -34 3 C-23.11 2.67 -12.22 2.34 -1 2 C-0.67 1.34 -0.34 0.68 0 0 Z " fill="#898989" transform="translate(638,309)"/>
<path d="M0 0 C1.23556641 0.01740234 1.23556641 0.01740234 2.49609375 0.03515625 C3.32238281 0.04417969 4.14867187 0.05320312 5 0.0625 C5.63808594 0.07410156 6.27617188 0.08570313 6.93359375 0.09765625 C2.63284526 2.41867584 -1.68888549 3.24462225 -6.44140625 4.22265625 C-7.27929688 4.40441406 -8.1171875 4.58617187 -8.98046875 4.7734375 C-13.41717669 5.70123963 -17.50572292 6.32049094 -22.06640625 6.09765625 C-21.73640625 5.43765625 -21.40640625 4.77765625 -21.06640625 4.09765625 C-19.31640625 3.61108398 -19.31640625 3.61108398 -17.06640625 3.28125 C-16.26203125 3.15685547 -15.45765625 3.03246094 -14.62890625 2.90429688 C-13.78328125 2.78248047 -12.93765625 2.66066406 -12.06640625 2.53515625 C-10.39921404 2.28736472 -8.73251282 2.03623907 -7.06640625 1.78125 C-6.32390625 1.67353271 -5.58140625 1.56581543 -4.81640625 1.45483398 C-2.5730677 0.99696508 -2.38475465 0.11270107 0 0 Z " fill="#919191" transform="translate(701.06640625,379.90234375)"/>
<path d="M0 0 C0.66 0.33 1.32 0.66 2 1 C-8.18906606 12.70615034 -8.18906606 12.70615034 -15 17 C-13.67879172 14.06769807 -12.25361803 12.01335101 -9.9609375 9.765625 C-9.38085938 9.19199219 -8.80078125 8.61835938 -8.203125 8.02734375 C-7.59984375 7.44082031 -6.9965625 6.85429687 -6.375 6.25 C-5.76398438 5.64800781 -5.15296875 5.04601562 -4.5234375 4.42578125 C-3.02011376 2.94594695 -1.51065144 1.47235324 0 0 Z " fill="#A7A7A7" transform="translate(509,429)"/>
<path d="M0 0 C1.37562854 1.28965176 2.70766393 2.62689293 4 4 C4 4.66 4 5.32 4 6 C4.99 6.33 5.98 6.66 7 7 C3.7 7 0.4 7 -3 7 C-2.01 5.68 -1.02 4.36 0 3 C-0.66 2.67 -1.32 2.34 -2 2 C-1.34 1.34 -0.68 0.68 0 0 Z " fill="#474747" transform="translate(569,305)"/>
<path d="M0 0 C2.31 0 4.62 0 7 0 C7 1.32 7 2.64 7 4 C4.69 4 2.38 4 0 4 C0 2.68 0 1.36 0 0 Z " fill="#424242" transform="translate(179,305)"/>
<path d="M0 0 C5.61 0 11.22 0 17 0 C15.68 0.33 14.36 0.66 13 1 C13 1.66 13 2.32 13 3 C12.01 3 11.02 3 10 3 C9.67 3.66 9.34 4.32 9 5 C9 4.34 9 3.68 9 3 C4.545 2.01 4.545 2.01 0 1 C0 0.67 0 0.34 0 0 Z " fill="#727272" transform="translate(623,302)"/>
<path d="M0 0 C4.62 0 9.24 0 14 0 C14 0.66 14 1.32 14 2 C12.35 2 10.7 2 9 2 C8.67 2.99 8.34 3.98 8 5 C6 4 6 4 5 3 C4.01 3.495 4.01 3.495 3 4 C3 3.01 3 2.02 3 1 C2.01 0.67 1.02 0.34 0 0 Z " fill="#5A5A5A" transform="translate(520,305)"/>
<path d="M0 0 C1.65 0 3.3 0 5 0 C4.01 0.66 3.02 1.32 2 2 C2.99 2.66 3.98 3.32 5 4 C0.71 4 -3.58 4 -8 4 C-8 3.67 -8 3.34 -8 3 C-6.865625 2.87625 -5.73125 2.7525 -4.5625 2.625 C-3.386875 2.41875 -2.21125 2.2125 -1 2 C-0.67 1.34 -0.34 0.68 0 0 Z " fill="#777777" transform="translate(638,309)"/>
<path d="M0 0 C3.63 0 7.26 0 11 0 C11 0.66 11 1.32 11 2 C4.6 3.23076923 4.6 3.23076923 1.5625 2.0625 C1.046875 1.711875 0.53125 1.36125 0 1 C0 0.67 0 0.34 0 0 Z " fill="#454545" transform="translate(639,310)"/>
<path d="M0 0 C0.66 0.33 1.32 0.66 2 1 C-2.455 4.465 -2.455 4.465 -7 8 C-7.66 7.67 -8.32 7.34 -9 7 C-7.87720538 6.01830524 -6.75168527 5.03972702 -5.625 4.0625 C-4.68527344 3.24458984 -4.68527344 3.24458984 -3.7265625 2.41015625 C-2 1 -2 1 0 0 Z " fill="#999999" transform="translate(690,284)"/>
<path d="M0 0 C-5.41538462 4.06153846 -5.41538462 4.06153846 -8.375 3.75 C-8.91125 3.5025 -9.4475 3.255 -10 3 C-3.94594595 -1.97297297 -3.94594595 -1.97297297 0 0 Z " fill="#9F9F9F" transform="translate(542,411)"/>
<path d="M0 0 C-5.41538462 3.07692308 -5.41538462 3.07692308 -8.375 2.6875 C-9.179375 2.3471875 -9.179375 2.3471875 -10 2 C-6.80505194 -1.19494806 -4.22040044 -1.35655728 0 0 Z " fill="#A8A8A8" transform="translate(552,407)"/>
<path d="M0 0 C2.97 0 5.94 0 9 0 C5.39338934 1.80330533 2.91606575 2.46599103 -1 3 C-0.67 2.01 -0.34 1.02 0 0 Z " fill="#A8A8A8" transform="translate(699,380)"/>
<path d="M0 0 C2.31 0 4.62 0 7 0 C7.33 0.66 7.66 1.32 8 2 C4.67465243 3.10844919 2.37817425 2.84454356 -1 2 C-0.67 1.34 -0.34 0.68 0 0 Z " fill="#484848" transform="translate(147,306)"/>
<path d="M0 0 C2.64 0 5.28 0 8 0 C8 0.66 8 1.32 8 2 C4.71303767 2.79953138 3.28976808 3.09658936 0 2 C0 1.34 0 0.68 0 0 Z " fill="#4A4A4A" transform="translate(167,306)"/>
</svg>
